<svg xmlns="http://www.w3.org/2000/svg" viewBox="0 0 720 820"><defs><filter id="s" x="-20%" y="-20%" width="140%" height="140%"><feDropShadow dx="0" dy="18" stdDeviation="18" flood-opacity=".16"/></filter><linearGradient id="g" x1="0" y1="0" x2="1" y2="1"><stop offset="0" stop-color="#b79a70"/><stop offset="1" stop-color="#d0b78d"/></linearGradient></defs><rect width="720" height="820" fill="#131416"/><g filter="url(#s)"><path fill="url(#g)" d="M255 235c5-82 44-125 105-125s100 43 105 125l67 45 55 110-70 40-42-79v308c0 26-22 48-48 48H293c-26 0-48-22-48-48V351l-42 79-70-40 55-110 67-45Z"/><path d="M290 230c0-65 28-103 70-103s70 38 70 103c-18 40-44 61-70 61s-52-21-70-61Z" fill="#131416" opacity=".55"/><path d="M315 304h90v105h-90Z" fill="none" stroke="#17181a" stroke-opacity=".35" stroke-width="4"/><text x="360" y="500" text-anchor="middle" fill="#17181a" font-size="76" font-family="Georgia" font-weight="700">YC</text></g></svg>